<svg width="578" height="513" viewBox="0 0 578 513" fill="none" xmlns="http://www.w3.org/2000/svg">
<g filter="url(#filter0_d_40000018_22020)">
<g clip-path="url(#clip0_40000018_22020)">
<rect x="27.5372" y="91.0078" width="522.926" height="329.984" rx="51.0171" fill="white"/>
<rect x="27.5372" y="91.0078" width="522.926" height="329.984" rx="51.0171" fill="url(#paint0_linear_40000018_22020)"/>
<path d="M83.3519 184.016V187.406H71.7478V197.119H67.6407V187.406H56.1995V184.016H83.3519ZM69.6943 168.402C76.0505 168.402 80.5161 171.043 80.5161 175.15C80.5161 179.192 76.0505 181.767 69.6943 181.767C63.3381 181.767 58.905 179.192 58.9376 175.15C58.905 171.043 63.3381 168.402 69.6943 168.402ZM69.6943 171.727C65.7176 171.727 63.1751 172.966 63.2077 175.15C63.1751 177.268 65.7176 178.474 69.6943 178.474C73.7036 178.474 76.2134 177.268 76.2134 175.15C76.2134 172.966 73.7036 171.727 69.6943 171.727ZM109.95 167.424V197.152H105.811V167.424H109.95ZM100.758 169.902V181.343H90.9794V186.786C95.4939 186.77 99.3402 186.509 103.692 185.809L104.05 189.166C99.161 190.013 94.7605 190.209 89.3496 190.209H86.6767V178.051H96.5207V173.259H86.6441V169.902H100.758ZM131.464 169.054V172.379H125.531C125.727 175.508 127.959 178.637 132.604 179.909L130.518 183.136C127.128 182.174 124.749 180.137 123.412 177.529C122.06 180.349 119.631 182.582 116.111 183.657L114.025 180.398C118.751 179.029 121.049 175.736 121.261 172.379H115.166V169.054H131.464ZM138.765 167.424V183.527H134.593V167.424H138.765ZM123.021 184.765V187.536H134.625V184.765H138.765V196.761H118.914V184.765H123.021ZM123.021 193.436H134.625V190.763H123.021V193.436ZM167.384 170.554V173.813H161.387C161.419 176.861 163.571 179.86 168.33 181.115L166.439 184.374C163.082 183.494 160.735 181.604 159.398 179.224C158.094 181.946 155.715 184.097 152.227 185.124L150.239 181.864C155.03 180.544 157.214 177.187 157.247 173.813H151.282V170.554H157.247V167.294H161.452V170.554H167.384ZM174.001 167.424V174.465H178.011V177.823H174.001V185.32H169.829V167.424H174.001ZM164.288 185.874C170.481 185.874 174.295 187.927 174.295 191.513C174.295 195.033 170.481 197.054 164.288 197.054C157.964 197.054 154.118 195.033 154.118 191.513C154.118 187.927 157.964 185.874 164.288 185.874ZM164.288 189.068C160.344 189.068 158.257 189.818 158.29 191.513C158.257 193.11 160.344 193.925 164.288 193.925C168.134 193.925 170.187 193.11 170.187 191.513C170.187 189.818 168.134 189.068 164.288 189.068ZM204.283 167.457V189.329H200.176V183.136H193.396V179.811H200.176V176.486H193.82C191.701 181.001 187.398 184.342 181.433 186.134L179.705 182.907C186.029 180.903 190.006 177.382 190.756 172.998H181.303V169.674H195.286C195.286 170.88 195.156 172.053 194.928 173.161H200.176V167.457H204.283ZM205.065 193.24V196.565H184.758V187.145H188.995V193.24H205.065ZM225.275 169.087V172.379H219.375C219.407 175.883 221.493 179.469 226.187 181.017L224.134 184.211C220.842 183.168 218.592 181.017 217.321 178.344C215.985 181.31 213.622 183.706 210.117 184.831L207.999 181.538C212.872 179.974 215.088 176.079 215.137 172.379H209.172V169.087H225.275ZM233.163 186.395V197.087H229.023V189.72H212.79V186.395H233.163ZM233.163 167.424V185.091H229.023V177.953H224.427V174.563H229.023V167.424H233.163ZM243.268 191.676L240.464 200.966H237.009L238.639 191.676H243.268ZM79.7664 214.424V220.161H83.7757V223.584H79.7664V229.256H75.5941V214.424H79.7664ZM79.7664 230.429V238.513H64.2181V240.501H80.6139V243.761H60.1437V235.514H75.6267V233.623H60.0785V230.429H79.7664ZM64.4137 215.305C68.9771 215.337 72.3671 218.075 72.3671 222.019C72.3671 225.931 68.9771 228.734 64.4137 228.734C59.8503 228.734 56.4277 225.931 56.4277 222.019C56.4277 218.075 59.8503 215.337 64.4137 215.305ZM64.4137 218.694C62.132 218.694 60.4696 219.933 60.5022 222.019C60.4696 224.138 62.132 225.442 64.4137 225.442C66.6954 225.442 68.3252 224.138 68.3252 222.019C68.3252 219.933 66.6954 218.694 64.4137 218.694ZM93.0655 216.511C97.5964 216.511 100.856 220.618 100.889 227.072C100.856 233.591 97.5964 237.665 93.0655 237.665C88.5347 237.665 85.2099 233.591 85.2425 227.072C85.2099 220.618 88.5347 216.511 93.0655 216.511ZM93.0655 220.259C90.7838 220.259 89.2518 222.671 89.2518 227.072C89.2518 231.505 90.7838 233.884 93.0655 233.884C95.3798 233.884 96.8793 231.505 96.9119 227.072C96.8793 222.671 95.3798 220.259 93.0655 220.259ZM108.483 214.424V225.605H112.851V229.06H108.483V244.087H104.311V214.424H108.483ZM121.489 214.881V216.934H133.387V214.881H137.526V224.823H129.443V226.746H140.982V230.005H113.927V226.746H125.335V224.823H117.382V214.881H121.489ZM121.489 221.726H133.387V219.933H121.489V221.726ZM137.689 231.57V239.067H121.163V240.762H138.472V243.891H117.089V236.199H133.582V234.601H117.056V231.57H137.689ZM166.537 214.424V226.061H170.481V229.484H166.537V244.087H162.364V214.424H166.537ZM151.64 217.456C151.608 225.605 150.76 231.961 145.447 237.796L142.188 235.481C146.229 231.114 147.403 226.762 147.664 220.846H143.491V217.456H151.64ZM159.855 217.456C159.855 225.931 159.105 233.265 153.857 239.719L150.565 237.405C154.59 232.45 155.682 227.365 155.943 220.846H152.618V217.456H159.855ZM198.774 237.209V240.632H171.622V237.209H177.685V229.94C175.387 228.571 174.001 226.469 174.001 223.845C174.001 219.053 178.695 215.859 185.149 215.859C191.57 215.859 196.297 219.053 196.329 223.845C196.313 226.403 194.96 228.49 192.744 229.875V237.209H198.774ZM185.149 219.151C180.912 219.151 178.108 220.846 178.108 223.845C178.108 226.746 180.912 228.538 185.149 228.538C189.354 228.538 192.19 226.746 192.222 223.845C192.19 220.846 189.354 219.151 185.149 219.151ZM181.792 237.209H188.539V231.439C187.48 231.651 186.339 231.765 185.149 231.765C183.959 231.765 182.835 231.668 181.792 231.439V237.209ZM205.652 233.656C205.684 229.614 206.76 228.343 208.716 227.137C210.117 226.224 211.193 225.214 211.193 223.714C211.193 222.084 209.922 221.009 208.357 221.009C206.825 221.009 205.424 222.019 205.358 223.942H200.73C200.828 219.346 204.218 217.162 208.39 217.162C212.921 217.162 216.148 219.542 216.148 223.551C216.148 226.224 214.779 227.952 212.627 229.223C210.802 230.331 209.987 231.374 209.955 233.656V234.015H205.652V233.656ZM207.901 241.381C206.369 241.381 205.13 240.143 205.163 238.643C205.13 237.144 206.369 235.938 207.901 235.938C209.335 235.938 210.606 237.144 210.606 238.643C210.606 240.143 209.335 241.381 207.901 241.381Z" fill="black"/>
<rect x="55.3521" y="280.902" width="467.295" height="80.5545" rx="16.6891" fill="white"/>
<path d="M86.0243 315.952C86.0243 319.836 88.5093 323.745 91.6215 325.168L90.4876 326.712C88.0509 325.458 86.0363 322.888 85.0833 319.836C84.1304 323.045 82.1158 325.795 79.6791 327.098L78.4487 325.578C81.5851 324.034 84.0942 319.909 84.0942 315.952V312.043H86.0243V315.952ZM96.2537 310.186V331.682H94.3719V319.064H89.2813V317.52H94.3719V310.186H96.2537ZM109.595 310.451C114.372 310.451 117.171 311.778 117.171 314.167C117.171 316.579 114.372 317.882 109.595 317.906C104.819 317.882 101.996 316.579 101.996 314.167C101.996 311.778 104.819 310.451 109.595 310.451ZM109.595 311.899C106.025 311.923 103.95 312.743 103.974 314.167C103.95 315.638 106.025 316.434 109.595 316.459C113.142 316.434 115.241 315.638 115.241 314.167C115.241 312.743 113.142 311.923 109.595 311.899ZM119.367 319.33V320.85H110.512V322.876H116.857V327.677H104.119V329.897H117.509V331.393H102.237V326.278H115V324.324H102.189V322.876H108.63V320.85H99.8244V319.33H119.367ZM144.144 310.186V315.783H147.377V317.351H144.144V323.069H142.262V310.186H144.144ZM138.306 311.778C138.306 317.231 134.445 321.26 128.197 323.093L127.401 321.549C132.576 320.053 135.881 317.074 136.279 313.346H128.341V311.778H138.306ZM137.365 323.31C141.683 323.31 144.385 324.879 144.385 327.436C144.385 330.042 141.683 331.586 137.365 331.586C133.094 331.586 130.32 330.042 130.344 327.436C130.32 324.879 133.094 323.31 137.365 323.31ZM137.365 324.83C134.228 324.806 132.202 325.82 132.226 327.436C132.202 329.052 134.228 330.066 137.365 330.066C140.525 330.066 142.552 329.052 142.552 327.436C142.552 325.82 140.525 324.806 137.365 324.83ZM165.496 310.21V315.132H168.753V316.724H165.496V322.321H163.614V310.21H165.496ZM165.496 323.503V331.344H151.913V323.503H165.496ZM153.77 324.999V329.8H163.662V324.999H153.77ZM151.671 311.296V319.088C154.723 319.076 157.872 318.835 161.346 318.123L161.587 319.716C157.944 320.439 154.711 320.681 151.478 320.681H149.765V311.296H151.671ZM187.04 311.585V313.467C187.04 315.506 187.04 317.713 186.437 320.801H189.622V322.369H180.768V331.682H178.862V322.369H170.08V320.801H184.507C185.158 317.713 185.158 315.457 185.158 313.467V313.153H172.541V311.585H187.04ZM215.316 310.186V331.682H213.41V310.186H215.316ZM203.904 311.85C207.089 311.875 209.381 314.77 209.381 319.33C209.381 323.889 207.089 326.785 203.904 326.785C200.696 326.785 198.428 323.889 198.428 319.33C198.428 314.77 200.696 311.875 203.904 311.85ZM203.904 313.539C201.757 313.563 200.261 315.831 200.261 319.33C200.261 322.828 201.757 325.096 203.904 325.096C206.052 325.096 207.548 322.828 207.548 319.33C207.548 315.831 206.052 313.563 203.904 313.539ZM226.655 316.772C226.655 320.415 229.309 324.107 232.47 325.482L231.408 326.978C228.899 325.832 226.728 323.359 225.739 320.391C224.725 323.54 222.566 326.278 220.117 327.508L218.983 326.013C222.047 324.541 224.725 320.488 224.749 316.772V313.974H219.683V312.405H231.77V313.974H226.655V316.772ZM236.668 310.186V331.634H234.762V310.186H236.668ZM258.068 310.186V331.634H256.162V310.186H258.068ZM253.122 312.526V314.094H250.685V324.42C251.891 324.336 253.086 324.227 254.232 324.082L254.352 325.506C249.672 326.23 244.509 326.302 240.528 326.326L240.311 324.71L243.278 324.686V314.094H240.866V312.526H253.122ZM245.136 324.661C246.342 324.637 247.585 324.589 248.827 324.517V314.094H245.136V324.661ZM269.359 316.772C269.359 320.415 272.012 324.107 275.173 325.482L274.111 326.978C271.602 325.832 269.431 323.359 268.442 320.391C267.429 323.54 265.269 326.278 262.82 327.508L261.687 326.013C264.751 324.541 267.429 320.488 267.453 316.772V313.974H262.386V312.405H274.473V313.974H269.359V316.772ZM279.371 310.186V331.634H277.465V310.186H279.371ZM302.677 327.388V328.98H283.038V327.388H291.868V323.335H285.499V316.724H298.334V313.346H285.451V311.778H300.192V318.268H287.381V321.766H300.698V323.335H293.726V327.388H302.677ZM317.538 312.212V329.68H315.343V314.48H315.246L311 317.303V315.108L315.343 312.212H317.538ZM322.195 329.68L322.171 328.087L328.13 321.815C330.205 319.619 331.194 318.437 331.194 316.82C331.194 315.035 329.674 313.853 327.72 313.853C325.645 313.853 324.318 315.18 324.318 317.134H322.267C322.243 314.046 324.632 311.971 327.792 311.971C330.953 311.971 333.22 314.094 333.22 316.82C333.22 318.775 332.304 320.295 329.216 323.479L325.211 327.605V327.75H333.534V329.68H322.195ZM342.726 329.921C339.252 329.921 336.767 328.063 336.646 325.289H338.842C338.962 326.953 340.627 327.991 342.702 327.991C344.994 327.991 346.683 326.736 346.683 324.927C346.683 323.021 345.163 321.67 342.437 321.67H341.013V319.764H342.437C344.56 319.764 346.031 318.582 346.031 316.772C346.031 315.035 344.753 313.853 342.774 313.853C340.917 313.853 339.204 314.89 339.107 316.603H337.008C337.129 313.829 339.686 311.971 342.799 311.971C346.128 311.971 348.155 314.142 348.13 316.652C348.155 318.63 346.996 320.102 345.163 320.608V320.729C347.431 321.091 348.83 322.707 348.806 324.927C348.83 327.798 346.2 329.921 342.726 329.921Z" fill="#030303"/>
</g>
</g>
<defs>
<filter id="filter0_d_40000018_22020" x="3.51667" y="75.4901" width="570.967" height="378.026" filterUnits="userSpaceOnUse" color-interpolation-filters="sRGB">
<feFlood flood-opacity="0" result="BackgroundImageFix"/>
<feColorMatrix in="SourceAlpha" type="matrix" values="0 0 0 0 0 0 0 0 0 0 0 0 0 0 0 0 0 0 127 0" result="hardAlpha"/>
<feOffset dy="8.50285"/>
<feGaussianBlur stdDeviation="12.0103"/>
<feComposite in2="hardAlpha" operator="out"/>
<feColorMatrix type="matrix" values="0 0 0 0 0 0 0 0 0 0 0 0 0 0 0 0 0 0 0.12 0"/>
<feBlend mode="normal" in2="BackgroundImageFix" result="effect1_dropShadow_40000018_22020"/>
<feBlend mode="normal" in="SourceGraphic" in2="effect1_dropShadow_40000018_22020" result="shape"/>
</filter>
<linearGradient id="paint0_linear_40000018_22020" x1="289" y1="91.0078" x2="289" y2="310.782" gradientUnits="userSpaceOnUse">
<stop stop-color="#83E4CC" stop-opacity="0.21"/>
<stop offset="1" stop-color="#CCE2C9" stop-opacity="0.43"/>
</linearGradient>
<clipPath id="clip0_40000018_22020">
<rect x="27.5372" y="91.0078" width="522.926" height="329.984" rx="51.0171" fill="white"/>
</clipPath>
</defs>
</svg>
