<svg width="578" height="513" viewBox="0 0 578 513" fill="none" xmlns="http://www.w3.org/2000/svg">
<path d="M162.489 449.932C162.489 449.932 90.775 78.3891 241.538 54.0718C451.945 20.1318 406.289 212.157 406.289 212.157C406.289 212.157 461.306 173.557 513.483 215.242C585.87 273.082 470.37 449.611 470.37 449.611L162.489 449.932Z" fill="#EFF9A7"/>
<path d="M162.489 449.932C162.489 449.932 -0.315918 291.354 39.1575 229.033C85.014 156.653 160.903 229.033 160.903 229.033L162.489 449.932Z" fill="#EFF9A7"/>
<path d="M544.035 449.932C544.035 456.63 444.804 462.057 322.385 462.057C199.966 462.057 100.723 456.63 100.723 449.932C100.723 443.229 199.966 437.802 322.385 437.802C444.804 437.802 544.035 443.229 544.035 449.932Z" fill="#DEEA85"/>
<path d="M123.46 410.113H501.795V172.7H123.46V410.113Z" fill="#C9E0F4"/>
<path d="M141.15 396.625H484.102V186.188H141.15V396.625Z" fill="#4BA1B2"/>
<path d="M151.657 386.729H473.604V195.477H151.657V386.729Z" fill="#5DBFC6"/>
<path d="M341.135 396.625H259.245L264.145 386.727H345.909L341.135 396.625ZM438.227 195.481H358.818L363.416 186.184H442.71L438.227 195.481Z" fill="#9EE6E7"/>
<path d="M345.909 386.729H264.144L358.818 195.482H438.227L345.909 386.729Z" fill="#8DD7DC"/>
<path d="M183.583 396.625H141.087L141.149 396.488V396.625H183.583Z" fill="#D9E9F7"/>
<path d="M183.584 396.625H141.15V396.488L151.657 375.261V386.727H188.358L183.584 396.625ZM280.676 195.481H240.655L245.252 186.184H285.159L280.676 195.481Z" fill="#9EE6E7"/>
<path d="M188.358 386.729H151.657V375.263L240.655 195.482H280.676L188.358 386.729Z" fill="#8DD7DC"/>
<path d="M446.857 396.625H404.36L409.255 386.727H451.472L446.857 396.625ZM473.604 339.255V256.743L484.1 235.534V316.735L473.604 339.255Z" fill="#9EE6E7"/>
<path d="M451.472 386.729H409.255L473.605 256.744V339.256L451.472 386.729Z" fill="#8DD7DC"/>
<path d="M316.435 396.625H301.924V186.184H316.435V396.625Z" fill="#4BA1B2"/>
<path d="M310.218 410.113H295.706V172.699H310.218V410.113Z" fill="#C9E0F4"/>
<path d="M423.596 336.762L365.703 294.229L366.844 285.517L421.884 281.166L423.596 336.762Z" fill="#036463"/>
<path d="M367.38 436.004C367.38 436.004 365.155 438.706 362.543 442.364C359.936 446.022 357.974 449.84 361.63 451.592C365.287 453.344 369.73 449.045 371.168 446.503C372.599 443.956 374.231 444.236 376.199 442.542C378.207 440.824 377.134 434.579 377.134 434.579L367.38 436.004Z" fill="#E5732C"/>
<path d="M400.944 315.78C395.605 322.821 377.819 436.216 377.819 436.216C372.474 440.893 364.465 436.216 364.465 436.216C358.675 378.4 365.914 284.834 365.914 284.834C365.914 284.834 406.283 322.821 400.944 315.78Z" fill="#036463"/>
<path d="M420.635 437.863C420.635 437.863 422.854 440.565 425.466 444.229C428.079 447.887 430.035 451.699 426.379 453.451C422.728 455.203 418.285 450.909 416.847 448.362C415.41 445.815 413.784 446.095 411.81 444.401C409.802 442.683 410.875 436.438 410.875 436.438L420.635 437.863Z" fill="#E5732C"/>
<path d="M387.071 317.646C392.411 324.687 410.191 438.082 410.191 438.082C415.536 442.758 423.544 438.082 423.544 438.082C429.334 380.259 422.518 285.062 422.518 285.062C422.518 285.062 381.727 324.687 387.071 317.646Z" fill="#036463"/>
<path d="M370.438 253.537C369.884 255.42 367.352 276.005 358.544 288.181C355.755 292.028 347.398 281.421 347.398 281.421C347.398 281.421 353.08 271.374 354.557 253.909C355.818 239.157 370.438 253.537 370.438 253.537Z" fill="#E5732C"/>
<path d="M361.967 281.01C358.744 291.406 337.997 316.576 337.997 316.576L334.683 309.232L350.187 275.315C350.187 275.315 365.19 270.615 361.967 281.01Z" fill="#E5732C"/>
<path d="M333.394 310.177C332.635 310.434 331.803 310.325 330.987 310.348C329.435 310.388 327.975 310.927 326.555 311.488C325.768 311.791 323.731 311.511 323.423 312.57C322.921 314.293 326.429 313.846 327.211 314.018C327.93 314.184 328.648 314.716 328.7 315.455L328.18 316.8C327.296 318.076 326.218 319.204 325.209 320.383C324.684 320.996 324.205 321.637 323.72 322.278C323.36 322.759 322.687 323.263 322.459 323.812L322.99 324.957L323.925 324.339C324.587 323.732 325.254 323.142 325.927 322.564L326.886 321.791C327.929 321.986 326.361 323.829 326.127 324.133C325.539 324.894 324.952 325.713 324.889 326.715L324.997 327.081L325.556 326.984C326.543 326.257 327.233 325.18 328.237 324.476L328.791 324.345C329.504 324.711 328.734 326.119 328.523 326.6L328.483 327.539L329.093 327.613L329.589 327.207C330.034 326.737 330.531 326.285 330.907 325.764L331.945 324.894L332.094 325.089L331.997 325.976L332.156 326.818L333.172 326.606C334.21 325.747 334.94 324.516 335.676 323.4C336.463 322.209 337.193 320.979 337.866 319.725C338.711 318.139 339.435 316.514 340.125 314.865C340.656 313.6 341.625 312.26 341.933 310.938C342.156 309.953 341.711 308.912 341.032 308.173C340.365 307.446 339.521 306.937 338.785 306.278C338.334 305.883 337.975 305.54 337.381 305.717C336.668 305.918 334.427 309.547 334.067 309.816L333.394 310.177Z" fill="#E5732C"/>
<path d="M359.822 233.388C362.44 226.262 367.551 220.497 373.763 222.432C377.282 223.531 380.728 230.114 380.739 234.974C380.756 244.322 378.994 258.044 369.85 271.267C366.501 276.116 351.419 274.644 352.092 264.564C352.971 251.34 356.137 243.423 359.822 233.388Z" fill="#EAAAA2"/>
<path d="M362.315 234.935C363.364 221.774 381.076 217.281 396.084 216.434C406.197 215.861 413.151 221.374 415.758 233.458C417.475 241.386 425.272 274.622 422.517 285.063C422.517 285.063 406.003 295.207 365.035 288.178C365.035 288.178 360.067 263.065 362.315 234.935Z" fill="#FFCAC0"/>
<path d="M391.777 200.634C391.777 200.634 377.785 206.971 378.857 207.996C379.941 209.015 379.028 211.751 379.496 214.104C379.986 216.663 378.885 219.72 377.18 222.776C375.982 224.917 379.256 226.463 381.857 226.394C393.06 226.097 398.993 220.59 395.964 217.584C389.164 210.83 391.777 200.634 391.777 200.634Z" fill="#E5732C"/>
<path d="M379.496 214.103C379.028 211.75 379.941 209.014 378.857 207.995C377.785 206.97 392.878 200.135 392.878 200.135C392.878 200.135 391.007 203.123 391.389 206.918C387.607 212.013 382.97 215.213 379.33 217.623C379.599 216.484 379.673 215.03 379.496 214.103Z" fill="#E5732C"/>
<path d="M373.37 186.855C368.538 192.482 366.861 208.659 374.448 214.555C378.612 217.795 389.781 210.989 393.591 201.154C394.088 199.872 394.515 193.083 390.003 186.752C387.973 183.878 378.395 181.01 373.37 186.855Z" fill="#E5732C"/>
<path d="M371.133 190.368C372.559 190.683 373.729 188.285 375.451 188.823C376.849 189.258 377.345 190.494 379.034 190.26C381.35 189.933 387.174 183.871 387.47 198.033C387.487 198.709 388.269 199.344 388.691 199.871C389.547 200.918 388.092 202.418 389.045 203.283L389.729 203.426L390.214 204.817C390.556 205.927 390.893 207.032 391.229 208.143C392.73 207.828 393.471 206.191 394.121 204.799C395.274 202.321 396.825 200.008 397.567 197.381C398.32 194.753 398.086 191.593 396.084 189.739C395.325 189.04 394.367 188.571 393.739 187.752C392.975 186.773 392.821 185.462 392.553 184.243C392.142 182.406 391.355 180.591 389.917 179.377C388.098 177.849 385.577 177.528 383.204 177.443C380.734 177.357 379.775 178.198 377.419 178.948C375.064 179.692 372.303 181.032 371.065 183.178C369.821 185.325 368.709 187.563 370.129 189.595L370.745 190.214L371.133 190.368Z" fill="#53424D"/>
<path d="M386.786 201.717C386.786 201.717 390.163 197.132 392.69 197.693C395.217 198.265 393.334 205.243 388.406 205.398C383.483 205.552 385.713 202.982 386.786 201.717Z" fill="#E5732C"/>
<path d="M383.911 199.644L383.757 199.747L383.204 200.016C382.439 200.25 381.972 199.815 381.647 199.186L381.048 199.558C381.766 200.937 383.238 201.075 384.43 200.102L383.911 199.644Z" fill="#1E100C"/>
<path d="M376.147 198.583L375.588 199.15C374.892 199.642 374.368 199.259 373.951 198.641L373.341 199.007C373.837 199.74 374.579 200.335 375.526 199.957L376.769 198.898L376.147 198.583Z" fill="#1E100C"/>
<path d="M374.163 195.31C375.241 194.835 376.267 195.219 376.901 196.209L377.591 195.7C376.747 194.389 375.292 193.879 373.838 194.515L374.163 195.31Z" fill="#1E100C"/>
<path d="M381.413 196.708C382.337 195.964 383.426 196.05 384.299 196.834L384.818 196.153C383.66 195.128 382.12 195.031 380.899 196.038L381.413 196.708Z" fill="#1E100C"/>
<path d="M378.612 197.422C378.914 198.149 379.102 198.996 378.96 199.769C378.749 200.897 377.568 201.503 376.98 202.477C376.176 203.805 377.174 204.452 378.715 204.721L378.84 204.246C375.389 203.633 379.125 201.503 379.502 200.044C379.736 199.134 379.53 198.12 379.176 197.256L378.612 197.422Z" fill="#E5732C"/>
<path d="M381.68 205.866C381.68 205.866 382.205 208.751 379.792 209.026C377.385 209.289 376.849 206.708 376.849 206.708L381.68 205.866Z" fill="#FAFFFF"/>
<path d="M386.159 204.647C385.953 205.54 385.069 206.101 384.185 205.901C383.295 205.695 382.736 204.807 382.936 203.914C383.135 203.021 384.019 202.466 384.915 202.667C385.805 202.867 386.364 203.76 386.159 204.647Z" fill="#E5732C"/>
<path d="M371.955 202.002C372.611 201.35 373.678 201.361 374.322 202.019C374.972 202.677 374.967 203.742 374.305 204.389C373.649 205.042 372.594 205.036 371.944 204.378C371.293 203.714 371.299 202.655 371.955 202.002Z" fill="#E5732C"/>
<path d="M415.364 252.319C415.461 254.271 422.803 278.159 416.596 284.742C413.339 288.193 401.714 277.271 401.714 277.271C401.714 277.271 408.724 273.905 400.499 257.917C393.739 244.762 415.364 252.319 415.364 252.319Z" fill="#E5732C"/>
<path d="M369.436 399.03L337.647 402.127L309.821 114.458L341.617 111.361L369.436 399.03Z" fill="#EA6D6D"/>
<path d="M332.453 121.196L310.839 123.303L310.56 120.315L332.168 118.208L332.453 121.196Z" fill="#FFFD86"/>
<path d="M333.029 127.177L311.421 129.289L311.13 126.295L332.738 124.189L333.029 127.177Z" fill="#FFFD86"/>
<path d="M334.187 139.149L312.579 141.256L312.289 138.262L333.896 136.155L334.187 139.149Z" fill="#FFFD86"/>
<path d="M328.061 145.782L313.161 147.236L312.87 144.242L327.77 142.794L328.061 145.782Z" fill="#FFFD86"/>
<path d="M335.927 157.094L314.319 159.201L314.028 156.207L335.636 154.101L335.927 157.094Z" fill="#FFFD86"/>
<path d="M329.8 163.735L314.889 165.184L314.61 162.19L329.509 160.741L329.8 163.735Z" fill="#FFFD86"/>
<path d="M337.661 175.04L316.048 177.146L315.762 174.153L337.37 172.046L337.661 175.04Z" fill="#FFFD86"/>
<path d="M338.237 181.024L316.629 183.125L316.338 180.137L337.946 178.03L338.237 181.024Z" fill="#FFFD86"/>
<path d="M339.395 192.985L317.787 195.092L317.496 192.098L339.104 189.997L339.395 192.985Z" fill="#FFFD86"/>
<path d="M333.268 199.62L318.369 201.074L318.078 198.08L332.977 196.632L333.268 199.62Z" fill="#FFFD86"/>
<path d="M341.135 210.933L319.522 213.039L319.236 210.045L340.844 207.944L341.135 210.933Z" fill="#FFFD86"/>
<path d="M335.008 217.567L320.098 219.021L319.812 216.028L334.718 214.579L335.008 217.567Z" fill="#FFFD86"/>
<path d="M342.287 222.895L320.679 225.002L320.388 222.008L341.996 219.907L342.287 222.895Z" fill="#FFFD86"/>
<path d="M342.869 228.88L321.261 230.986L320.97 227.992L342.578 225.892L342.869 228.88Z" fill="#FFFD86"/>
<path d="M344.027 240.843L322.419 242.949L322.128 239.955L343.736 237.855L344.027 240.843Z" fill="#FFFD86"/>
<path d="M337.9 247.476L322.995 248.93L322.704 245.936L337.609 244.488L337.9 247.476Z" fill="#FFFD86"/>
<path d="M345.761 258.788L324.148 260.895L323.862 257.901L345.476 255.8L345.761 258.788Z" fill="#FFFD86"/>
<path d="M339.629 265.423L324.729 266.877L324.438 263.889L339.344 262.435L339.629 265.423Z" fill="#FFFD86"/>
<path d="M347.495 276.741L325.887 278.842L325.596 275.854L347.204 273.747L347.495 276.741Z" fill="#FFFD86"/>
<path d="M348.077 282.718L326.469 284.824L326.178 281.836L347.786 279.729L348.077 282.718Z" fill="#FFFD86"/>
<path d="M349.235 294.681L327.627 296.787L327.336 293.799L348.944 291.692L349.235 294.681Z" fill="#FFFD86"/>
<path d="M343.108 301.314L328.198 302.768L327.918 299.779L342.818 298.325L343.108 301.314Z" fill="#FFFD86"/>
<path d="M350.969 312.626L329.355 314.732L329.07 311.744L350.678 309.638L350.969 312.626Z" fill="#FFFD86"/>
<path d="M344.837 319.267L329.938 320.715L329.647 317.727L344.552 316.273L344.837 319.267Z" fill="#FFFD86"/>
<path d="M352.703 330.579L331.095 332.686L330.804 329.692L352.412 327.585L352.703 330.579Z" fill="#FFFD86"/>
<path d="M353.285 336.559L331.677 338.666L331.386 335.672L352.994 333.565L353.285 336.559Z" fill="#FFFD86"/>
<path d="M354.443 348.518L332.829 350.625L332.538 347.637L354.152 345.53L354.443 348.518Z" fill="#FFFD86"/>
<path d="M348.316 355.159L333.405 356.607L333.12 353.619L348.025 352.165L348.316 355.159Z" fill="#FFFD86"/>
<path d="M356.177 366.469L334.569 368.576L334.278 365.582L355.886 363.476L356.177 366.469Z" fill="#FFFD86"/>
<path d="M350.045 373.104L335.145 374.553L334.854 371.565L349.76 370.116L350.045 373.104Z" fill="#FFFD86"/>
<path d="M357.911 384.417L336.303 386.518L336.012 383.529L357.626 381.423L357.911 384.417Z" fill="#FFFD86"/>
<path d="M351.784 391.05L336.879 392.504L336.594 389.51L351.493 388.056L351.784 391.05Z" fill="#FFFD86"/>
<path d="M413.334 287.456C403.619 292.31 371.168 294.697 371.168 294.697L374.151 287.21L409.284 274.971C409.284 274.971 423.042 282.584 413.334 287.456Z" fill="#E5732C"/>
<path d="M400.1 237.374C400.659 229.807 403.996 222.852 410.499 223.006C414.183 223.092 419.3 228.462 420.641 233.144C423.219 242.126 425.272 255.807 420.104 271.045C418.211 276.627 403.3 279.369 401.189 269.494C398.423 256.528 399.295 248.039 400.1 237.374Z" fill="#EAAAA2"/>
<path d="M372.588 286.936C371.875 286.564 371.379 285.888 370.791 285.304C369.69 284.217 368.298 283.535 366.906 282.883C366.136 282.528 364.938 280.856 363.963 281.366C362.377 282.196 365.121 284.429 365.537 285.115C365.92 285.745 366.034 286.638 365.532 287.182L364.214 287.743C362.68 287.989 361.122 287.983 359.571 288.063C358.772 288.109 357.979 288.207 357.181 288.304C356.582 288.373 355.755 288.229 355.207 288.453L354.756 289.626L355.84 289.878C356.73 289.93 357.626 290.01 358.51 290.096L359.725 290.256C360.295 291.149 357.888 291.292 357.512 291.326C356.559 291.429 355.561 291.567 354.796 292.219L354.608 292.546L355.07 292.889C356.274 293.095 357.523 292.861 358.727 293.095L359.2 293.404C359.434 294.166 357.888 294.589 357.397 294.772L356.69 295.391L357.061 295.883L357.7 295.963C358.344 295.957 359.012 296.003 359.645 295.917L360.985 296.072L360.957 296.307L360.25 296.856L359.753 297.555L360.609 298.138C361.944 298.299 363.341 297.978 364.648 297.738C366.045 297.48 367.437 297.16 368.806 296.776C370.529 296.301 372.2 295.7 373.866 295.053C375.143 294.561 376.781 294.343 377.938 293.645C378.8 293.124 379.25 292.088 379.307 291.08C379.37 290.096 379.154 289.128 379.108 288.144C379.085 287.537 379.085 287.044 378.549 286.735C377.904 286.363 373.751 287.251 373.307 287.176L372.588 286.936Z" fill="#E5732C"/>
<path d="M210.182 242.427L213.268 248.088L218.904 251.185L213.268 254.282L210.182 259.943L207.096 254.282L201.455 251.185L207.096 248.088L210.182 242.427Z" fill="white"/>
<path d="M457.935 361.106L461.021 366.768L466.657 369.865L461.021 372.962L457.935 378.617L454.849 372.962L449.202 369.865L454.849 366.768L457.935 361.106Z" fill="white"/>
</svg>
