<svg preserveAspectRatio="none" width="100%" height="100%" overflow="visible" style="display: block;" viewBox="0 0 283.413 228.488" fill="none" xmlns="http://www.w3.org/2000/svg">
<g id="Group 33643">
<path id="path438" d="M71.8186 221.763C71.8186 221.763 32.048 15.7161 115.657 2.23044C232.343 -16.5918 207.023 89.9001 207.023 89.9001C207.023 89.9001 237.534 68.4938 266.47 91.6112C306.614 123.687 242.561 221.586 242.561 221.586L71.8186 221.763Z" fill="var(--fill-0, #EFF9A7)"/>
<path id="path439" d="M71.8187 221.763C71.8187 221.763 -18.4685 133.821 3.42238 99.2588C28.8531 59.1192 70.9392 99.2588 70.9392 99.2588L71.8187 221.763Z" fill="var(--fill-0, #EFF9A7)"/>
<path id="path440" d="M283.413 221.764C283.413 225.478 228.383 228.488 160.492 228.488C92.6024 228.488 37.5652 225.478 37.5652 221.764C37.5652 218.046 92.6024 215.037 160.492 215.037C228.383 215.037 283.413 218.046 283.413 221.764Z" fill="var(--fill-0, #DEEA85)"/>
<path id="path441" d="M50.1743 199.681H259.988V68.0186H50.1743V199.681Z" fill="var(--fill-0, #C9E0F4)"/>
<path id="path442" d="M59.9843 192.201H250.176V75.4988H59.9843V192.201Z" fill="var(--fill-0, #4BA1B2)"/>
<path id="path443" d="M65.8114 186.713H244.354V80.6501H65.8114V186.713Z" fill="var(--fill-0, #5DBFC6)"/>
<path id="path444" d="M170.891 192.201H125.477L128.194 186.712H173.538L170.891 192.201ZM224.735 80.6521H180.697L183.247 75.4966H227.222L224.735 80.6521Z" fill="var(--fill-0, #9EE6E7)"/>
<path id="path445" d="M173.538 186.713H128.194L180.697 80.6526H224.735L173.538 186.713Z" fill="var(--fill-0, #8DD7DC)"/>
<path id="path446" d="M83.517 192.201H59.9496L59.9843 192.125V192.201H83.517Z" fill="var(--fill-0, #D9E9F7)"/>
<path id="path447" d="M83.5171 192.201H59.9843V192.125L65.8114 180.354V186.712H86.1648L83.5171 192.201ZM137.362 80.6521H115.167L117.717 75.4966H139.848L137.362 80.6521Z" fill="var(--fill-0, #9EE6E7)"/>
<path id="path448" d="M86.1648 186.713H65.8114V180.354L115.167 80.6526H137.362L86.1648 186.713Z" fill="var(--fill-0, #8DD7DC)"/>
<path id="path449" d="M229.521 192.201H205.954L208.668 186.712H232.08L229.521 192.201ZM244.355 160.385V114.627L250.175 102.865V147.896L244.355 160.385Z" fill="var(--fill-0, #9EE6E7)"/>
<path id="path450" d="M232.081 186.713H208.668L244.355 114.627V160.386L232.081 186.713Z" fill="var(--fill-0, #8DD7DC)"/>
<path id="path451" d="M157.193 192.201H149.145V75.4966H157.193V192.201Z" fill="var(--fill-0, #4BA1B2)"/>
<path id="path452" d="M153.745 199.681H145.697V68.018H153.745V199.681Z" fill="var(--fill-0, #C9E0F4)"/>
<path id="path453" d="M216.621 159.002L184.516 135.415L185.148 130.583L215.672 128.17L216.621 159.002Z" fill="var(--fill-0, #036463)"/>
<path id="path454" d="M185.446 214.04C185.446 214.04 184.212 215.538 182.763 217.567C181.317 219.595 180.229 221.713 182.257 222.684C184.285 223.656 186.749 221.272 187.546 219.862C188.34 218.449 189.245 218.605 190.336 217.665C191.45 216.713 190.855 213.249 190.855 213.249L185.446 214.04Z" fill="var(--fill-0, #E5732C)"/>
<path id="path455" d="M204.059 147.367C201.098 151.271 191.235 214.157 191.235 214.157C188.27 216.751 183.829 214.157 183.829 214.157C180.618 182.094 184.632 130.205 184.632 130.205C184.632 130.205 207.02 151.271 204.059 147.367Z" fill="var(--fill-0, #036463)"/>
<path id="path456" d="M214.979 215.071C214.979 215.071 216.21 216.569 217.659 218.601C219.107 220.63 220.192 222.744 218.165 223.715C216.14 224.687 213.676 222.306 212.879 220.893C212.081 219.48 211.18 219.636 210.085 218.696C208.972 217.744 209.567 214.28 209.567 214.28L214.979 215.071Z" fill="var(--fill-0, #E5732C)"/>
<path id="path457" d="M196.366 148.401C199.327 152.306 209.187 215.192 209.187 215.192C212.151 217.785 216.593 215.192 216.593 215.192C219.804 183.125 216.023 130.331 216.023 130.331C216.023 130.331 193.402 152.306 196.366 148.401Z" fill="var(--fill-0, #036463)"/>
<path id="path458" d="M187.141 112.849C186.834 113.893 185.43 125.309 180.545 132.061C178.999 134.195 174.364 128.312 174.364 128.312C174.364 128.312 177.515 122.741 178.334 113.055C179.033 104.874 187.141 112.849 187.141 112.849Z" fill="var(--fill-0, #E5732C)"/>
<path id="path459" d="M182.443 128.085C180.656 133.85 169.151 147.809 169.151 147.809L167.313 143.735L175.911 124.926C175.911 124.926 184.231 122.32 182.443 128.085Z" fill="var(--fill-0, #E5732C)"/>
<path id="path460" d="M166.598 144.259C166.177 144.401 165.715 144.341 165.263 144.354C164.402 144.376 163.593 144.674 162.805 144.986C162.368 145.154 161.239 144.998 161.068 145.586C160.79 146.541 162.735 146.294 163.169 146.389C163.567 146.481 163.966 146.776 163.994 147.186L163.707 147.932C163.216 148.639 162.618 149.265 162.058 149.919C161.767 150.259 161.502 150.614 161.233 150.97C161.033 151.236 160.66 151.516 160.534 151.82L160.828 152.455L161.347 152.113C161.714 151.776 162.084 151.449 162.457 151.128L162.988 150.7C163.567 150.808 162.697 151.83 162.568 151.998C162.242 152.42 161.916 152.874 161.881 153.43L161.941 153.633L162.251 153.579C162.799 153.176 163.181 152.579 163.738 152.189L164.045 152.116C164.44 152.319 164.013 153.1 163.896 153.367L163.874 153.887L164.213 153.928L164.488 153.703C164.735 153.443 165.01 153.192 165.219 152.903L165.794 152.42L165.877 152.528L165.823 153.02L165.911 153.487L166.475 153.37C167.05 152.893 167.455 152.211 167.863 151.592C168.3 150.932 168.705 150.249 169.078 149.554C169.546 148.674 169.948 147.773 170.331 146.859C170.625 146.157 171.163 145.414 171.333 144.681C171.457 144.135 171.21 143.557 170.834 143.147C170.464 142.744 169.995 142.462 169.587 142.097C169.337 141.878 169.138 141.687 168.809 141.786C168.414 141.897 167.17 143.909 166.971 144.059L166.598 144.259Z" fill="var(--fill-0, #E5732C)"/>
<path id="path461" d="M181.254 101.674C182.706 97.722 185.54 94.5252 188.985 95.5983C190.937 96.2078 192.848 99.8585 192.854 102.554C192.864 107.738 191.886 115.347 186.815 122.681C184.958 125.37 176.594 124.554 176.967 118.963C177.455 111.63 179.21 107.239 181.254 101.674Z" fill="var(--fill-0, #EAAAA2)"/>
<path id="path462" d="M182.636 102.532C183.218 95.2334 193.041 92.7414 201.364 92.2716C206.973 91.9541 210.829 95.0113 212.274 101.713C213.227 106.11 217.551 124.541 216.023 130.332C216.023 130.332 206.865 135.957 184.145 132.059C184.145 132.059 181.39 118.132 182.636 102.532Z" fill="var(--fill-0, #FFCAC0)"/>
<path id="path463" d="M198.975 83.5098C198.975 83.5098 191.216 87.0242 191.81 87.5924C192.411 88.1575 191.905 89.6749 192.165 90.9797C192.437 92.3987 191.826 94.0939 190.88 95.7892C190.216 96.9765 192.032 97.8336 193.474 97.7955C199.687 97.6305 202.977 94.5765 201.297 92.9099C197.527 89.1638 198.975 83.5098 198.975 83.5098Z" fill="var(--fill-0, #E5732C)"/>
<path id="path464" d="M192.165 90.979C191.905 89.6743 192.411 88.1568 191.81 87.5918C191.216 87.0235 199.586 83.2331 199.586 83.2331C199.586 83.2331 198.548 84.8901 198.76 86.9949C196.663 89.8203 194.091 91.5949 192.073 92.9314C192.222 92.2996 192.263 91.4933 192.165 90.979Z" fill="var(--fill-0, #E5732C)"/>
<path id="path465" d="M188.767 75.8683C186.088 78.989 185.158 87.9604 189.365 91.2303C191.674 93.0271 197.868 89.2524 199.982 83.7985C200.257 83.0874 200.494 79.3223 197.992 75.8112C196.866 74.2176 191.554 72.6271 188.767 75.8683Z" fill="var(--fill-0, #E5732C)"/>
<path id="path466" d="M187.527 77.817C188.318 77.9916 188.966 76.6615 189.922 76.9599C190.697 77.2012 190.972 77.8869 191.908 77.7567C193.193 77.5758 196.423 74.2138 196.587 82.0678C196.597 82.4424 197.03 82.7948 197.264 83.0868C197.739 83.6678 196.932 84.4996 197.46 84.979L197.84 85.0583L198.109 85.8297C198.298 86.4456 198.485 87.0583 198.672 87.6742C199.504 87.4996 199.915 86.5916 200.276 85.8202C200.915 84.4456 201.775 83.1631 202.186 81.7059C202.604 80.2488 202.474 78.4964 201.364 77.4678C200.943 77.0805 200.412 76.8202 200.064 76.3662C199.64 75.8234 199.554 75.0964 199.406 74.4202C199.178 73.4012 198.741 72.3948 197.944 71.7218C196.935 70.8742 195.537 70.6964 194.221 70.6488C192.851 70.6012 192.32 71.0679 191.013 71.4837C189.707 71.8964 188.175 72.6393 187.489 73.8297C186.799 75.0202 186.183 76.2615 186.97 77.3884L187.312 77.7313L187.527 77.817Z" fill="var(--fill-0, #53424D)"/>
<path id="path467" d="M196.207 84.1099C196.207 84.1099 198.08 81.5671 199.482 81.8782C200.883 82.1956 199.839 86.0655 197.106 86.1512C194.376 86.2369 195.613 84.8115 196.207 84.1099Z" fill="var(--fill-0, #E5732C)"/>
<path id="path468" d="M194.613 82.9609L194.528 83.018L194.221 83.1672C193.797 83.2974 193.538 83.0561 193.357 82.7069L193.025 82.9133C193.424 83.6784 194.24 83.7546 194.901 83.2149L194.613 82.9609Z" fill="var(--fill-0, #1E100C)"/>
<path id="path469" d="M190.308 82.3727L189.998 82.687C189.612 82.96 189.321 82.7474 189.09 82.4045L188.751 82.6076C189.026 83.014 189.438 83.3442 189.963 83.1347L190.652 82.5473L190.308 82.3727Z" fill="var(--fill-0, #1E100C)"/>
<path id="path470" d="M189.207 80.5573C189.805 80.2938 190.374 80.5065 190.725 81.0557L191.108 80.7732C190.64 80.0462 189.833 79.7636 189.027 80.116L189.207 80.5573Z" fill="var(--fill-0, #1E100C)"/>
<path id="path471" d="M193.228 81.3323C193.74 80.9196 194.344 80.9672 194.828 81.4022L195.116 81.0243C194.474 80.4561 193.62 80.4021 192.943 80.9608L193.228 81.3323Z" fill="var(--fill-0, #1E100C)"/>
<path id="path472" d="M191.674 81.7283C191.842 82.1314 191.946 82.6012 191.867 83.0298C191.75 83.6552 191.095 83.9917 190.77 84.5314C190.324 85.2679 190.877 85.6267 191.731 85.7759L191.801 85.5124C189.887 85.1727 191.959 83.9917 192.168 83.1822C192.298 82.6774 192.184 82.1155 191.987 81.6362L191.674 81.7283Z" fill="var(--fill-0, #E5732C)"/>
<path id="path473" d="M193.376 86.4116C193.376 86.4116 193.667 88.0115 192.329 88.1639C190.994 88.31 190.697 86.8783 190.697 86.8783L193.376 86.4116Z" fill="var(--fill-0, #FAFFFF)"/>
<path id="path474" d="M195.86 85.735C195.746 86.2303 195.255 86.5414 194.765 86.4303C194.272 86.316 193.962 85.8239 194.072 85.3287C194.183 84.8334 194.673 84.5255 195.17 84.6366C195.663 84.7478 195.973 85.243 195.86 85.735Z" fill="var(--fill-0, #E5732C)"/>
<path id="path475" d="M187.983 84.2686C188.346 83.9067 188.938 83.913 189.295 84.278C189.656 84.6431 189.653 85.2336 189.286 85.5924C188.922 85.9543 188.337 85.9511 187.976 85.586C187.616 85.2177 187.619 84.6305 187.983 84.2686Z" fill="var(--fill-0, #E5732C)"/>
<path id="path476" d="M212.056 112.173C212.11 113.255 216.181 126.503 212.74 130.154C210.933 132.068 204.486 126.011 204.486 126.011C204.486 126.011 208.374 124.144 203.812 115.278C200.064 107.982 212.056 112.173 212.056 112.173Z" fill="var(--fill-0, #E5732C)"/>
<path id="path477" d="M186.586 193.535L168.956 195.253L153.525 35.7196L171.158 34.0021L186.586 193.535Z" fill="var(--fill-0, #EA6D6D)"/>
<path id="path478" d="M166.076 39.4559L154.09 40.6241L153.935 38.967L165.918 37.7988L166.076 39.4559Z" fill="var(--fill-0, #FFFD86)"/>
<path id="path479" d="M166.395 42.7726L154.412 43.944L154.251 42.2837L166.234 41.1154L166.395 42.7726Z" fill="var(--fill-0, #FFFD86)"/>
<path id="path480" d="M167.038 49.4119L155.055 50.5801L154.893 48.9198L166.876 47.7516L167.038 49.4119Z" fill="var(--fill-0, #FFFD86)"/>
<path id="path481" d="M163.64 53.0905L155.377 53.8969L155.216 52.2365L163.479 51.4334L163.64 53.0905Z" fill="var(--fill-0, #FFFD86)"/>
<path id="path482" d="M168.002 59.3636L156.019 60.5319L155.858 58.8716L167.841 57.7033L168.002 59.3636Z" fill="var(--fill-0, #FFFD86)"/>
<path id="path483" d="M164.605 63.0465L156.336 63.8497L156.181 62.1894L164.444 61.3862L164.605 63.0465Z" fill="var(--fill-0, #FFFD86)"/>
<path id="path484" d="M168.964 69.3165L156.978 70.4847L156.82 68.8244L168.803 67.6562L168.964 69.3165Z" fill="var(--fill-0, #FFFD86)"/>
<path id="path485" d="M169.284 72.6342L157.301 73.7993L157.139 72.1421L169.122 70.9739L169.284 72.6342Z" fill="var(--fill-0, #FFFD86)"/>
<path id="path486" d="M169.926 79.2682L157.943 80.4364L157.781 78.7761L169.764 77.611L169.926 79.2682Z" fill="var(--fill-0, #FFFD86)"/>
<path id="path487" d="M166.528 82.9479L158.265 83.7542L158.104 82.0939L166.367 81.2907L166.528 82.9479Z" fill="var(--fill-0, #FFFD86)"/>
<path id="path488" d="M170.891 89.221L158.905 90.3893L158.746 88.729L170.729 87.5639L170.891 89.221Z" fill="var(--fill-0, #FFFD86)"/>
<path id="path489" d="M167.493 92.9007L159.224 93.707L159.066 92.0467L167.332 91.2436L167.493 92.9007Z" fill="var(--fill-0, #FFFD86)"/>
<path id="path490" d="M171.53 95.8555L159.547 97.0238L159.385 95.3635L171.368 94.1983L171.53 95.8555Z" fill="var(--fill-0, #FFFD86)"/>
<path id="path491" d="M171.852 99.1738L159.869 100.342L159.708 98.6818L171.691 97.5167L171.852 99.1738Z" fill="var(--fill-0, #FFFD86)"/>
<path id="path492" d="M172.494 105.808L160.511 106.977L160.35 105.316L172.333 104.151L172.494 105.808Z" fill="var(--fill-0, #FFFD86)"/>
<path id="path493" d="M169.097 109.487L160.831 110.293L160.669 108.633L168.936 107.83L169.097 109.487Z" fill="var(--fill-0, #FFFD86)"/>
<path id="path494" d="M173.456 115.76L161.47 116.928L161.312 115.268L173.298 114.103L173.456 115.76Z" fill="var(--fill-0, #FFFD86)"/>
<path id="path495" d="M170.056 119.44L161.793 120.246L161.631 118.589L169.897 117.783L170.056 119.44Z" fill="var(--fill-0, #FFFD86)"/>
<path id="path496" d="M174.418 125.716L162.435 126.881L162.273 125.224L174.256 124.056L174.418 125.716Z" fill="var(--fill-0, #FFFD86)"/>
<path id="path497" d="M174.74 129.031L162.757 130.199L162.596 128.542L174.579 127.373L174.74 129.031Z" fill="var(--fill-0, #FFFD86)"/>
<path id="path498" d="M175.383 135.666L163.4 136.834L163.238 135.177L175.221 134.009L175.383 135.666Z" fill="var(--fill-0, #FFFD86)"/>
<path id="path499" d="M171.985 139.344L163.716 140.151L163.561 138.494L171.824 137.687L171.985 139.344Z" fill="var(--fill-0, #FFFD86)"/>
<path id="path500" d="M176.344 145.617L164.358 146.786L164.2 145.129L176.183 143.96L176.344 145.617Z" fill="var(--fill-0, #FFFD86)"/>
<path id="path501" d="M172.944 149.3L164.681 150.103L164.52 148.446L172.786 147.64L172.944 149.3Z" fill="var(--fill-0, #FFFD86)"/>
<path id="path502" d="M177.306 155.573L165.323 156.742L165.161 155.081L177.144 153.913L177.306 155.573Z" fill="var(--fill-0, #FFFD86)"/>
<path id="path503" d="M177.629 158.89L165.646 160.058L165.484 158.398L177.467 157.23L177.629 158.89Z" fill="var(--fill-0, #FFFD86)"/>
<path id="path504" d="M178.271 165.523L166.285 166.691L166.123 165.034L178.109 163.865L178.271 165.523Z" fill="var(--fill-0, #FFFD86)"/>
<path id="path505" d="M174.873 169.205L166.604 170.008L166.446 168.351L174.712 167.545L174.873 169.205Z" fill="var(--fill-0, #FFFD86)"/>
<path id="path506" d="M179.232 175.478L167.249 176.646L167.088 174.986L179.071 173.818L179.232 175.478Z" fill="var(--fill-0, #FFFD86)"/>
<path id="path507" d="M175.832 179.157L167.569 179.96L167.408 178.303L175.674 177.5L175.832 179.157Z" fill="var(--fill-0, #FFFD86)"/>
<path id="path508" d="M180.194 185.43L168.211 186.595L168.05 184.938L180.036 183.77L180.194 185.43Z" fill="var(--fill-0, #FFFD86)"/>
<path id="path509" d="M176.797 189.11L168.531 189.916L168.372 188.255L176.635 187.449L176.797 189.11Z" fill="var(--fill-0, #FFFD86)"/>
<path id="path510" d="M210.93 131.659C205.543 134.351 187.546 135.674 187.546 135.674L189.201 131.522L208.684 124.735C208.684 124.735 216.314 128.957 210.93 131.659Z" fill="var(--fill-0, #E5732C)"/>
<path id="path511" d="M203.591 103.884C203.901 99.6877 205.752 95.8306 209.358 95.9163C211.401 95.9639 214.239 98.9417 214.982 101.539C216.412 106.519 217.551 114.107 214.685 122.557C213.635 125.653 205.366 127.173 204.195 121.697C202.661 114.507 203.145 109.799 203.591 103.884Z" fill="var(--fill-0, #EAAAA2)"/>
<path id="path512" d="M188.334 131.37C187.938 131.164 187.663 130.789 187.337 130.466C186.727 129.862 185.955 129.485 185.183 129.123C184.756 128.926 184.092 127.999 183.551 128.281C182.671 128.742 184.193 129.98 184.424 130.361C184.636 130.71 184.699 131.205 184.421 131.507L183.69 131.818C182.839 131.954 181.975 131.951 181.115 131.996C180.672 132.021 180.232 132.075 179.789 132.129C179.457 132.167 178.998 132.088 178.695 132.212L178.445 132.862L179.046 133.002C179.539 133.031 180.036 133.075 180.526 133.123L181.2 133.212C181.517 133.707 180.182 133.786 179.973 133.805C179.444 133.862 178.891 133.939 178.467 134.3L178.363 134.481L178.619 134.672C179.286 134.786 179.979 134.656 180.647 134.786L180.909 134.958C181.039 135.38 180.182 135.615 179.909 135.716L179.517 136.059L179.723 136.332L180.077 136.377C180.435 136.373 180.805 136.399 181.156 136.351L181.899 136.437L181.883 136.567L181.491 136.872L181.216 137.259L181.69 137.583C182.431 137.672 183.206 137.494 183.93 137.361C184.705 137.218 185.477 137.04 186.236 136.827C187.192 136.564 188.119 136.231 189.042 135.872C189.751 135.599 190.659 135.478 191.301 135.091C191.779 134.802 192.029 134.227 192.06 133.669C192.095 133.123 191.975 132.586 191.949 132.04C191.937 131.704 191.937 131.431 191.639 131.259C191.282 131.053 188.979 131.545 188.732 131.504L188.334 131.37Z" fill="var(--fill-0, #E5732C)"/>
<path id="path513" d="M98.2679 106.687L99.9793 109.827L103.105 111.544L99.9793 113.262L98.2679 116.401L96.5565 113.262L93.4279 111.544L96.5565 109.827L98.2679 106.687Z" fill="var(--fill-0, white)"/>
<path id="path514" d="M235.665 172.504L237.376 175.643L240.502 177.361L237.376 179.078L235.665 182.215L233.954 179.078L230.822 177.361L233.954 175.643L235.665 172.504Z" fill="var(--fill-0, white)"/>
</g>
</svg>
