<svg viewBox="0 0 128 37" fill="none" xmlns="http://www.w3.org/2000/svg">
  <!-- House icon -->
  <g transform="translate(0, 0)">
    <path d="M30.9271 9.41148L19.4902 0.831878C18.1141 -0.26595 15.7831 -0.288508 14.3695 0.831878L2.92504 9.419C0.38349 11.344 0 12.0057 0 14.4419V33.6238C0 35.4811 1.71442 37 3.82736 37H19.5128V19.2618C19.5128 19.1867 19.603 19.1039 19.7308 19.1039H23.1747C23.31 19.1039 23.4078 19.1867 23.4078 19.2618V37H30.0248C32.1378 37 33.8597 35.4886 33.8597 33.6238V14.4419C33.8597 11.9906 33.4762 11.3364 30.9347 9.419L30.9271 9.41148ZM25.3929 15.1563H17.3397C16.317 15.1563 15.4899 15.9308 15.4899 16.8782V33.9923H11.3392V22.1568C11.3392 21.0515 10.4369 20.1491 9.33153 20.1491C8.22619 20.1491 7.32386 21.0515 7.32386 22.1568V33.9923H3.82736C3.30852 33.9923 3.00775 33.7066 2.99271 33.6088V14.4269C2.99271 13.5446 3.56919 12.6699 4.72216 11.8027L16.1817 3.208L16.2493 3.14033C16.6103 2.89219 17.2945 2.89972 17.6479 3.17794L29.13 11.8027C30.288 12.6699 30.867 13.5446 30.867 14.4269V33.6013C30.852 33.699 30.5437 33.9848 30.0248 33.9848H27.2502V16.8707C27.2502 15.9157 26.4155 15.1488 25.3929 15.1488V15.1563Z" fill="#EB5C62"/>
    <path d="M9.30034 15.4113C8.21003 15.4113 7.33027 16.2986 7.33027 17.3964C7.33027 18.4942 8.21755 19.3815 9.30034 19.3815C10.3831 19.3815 11.2855 18.4942 11.2855 17.3964C11.2855 16.2986 10.3906 15.4113 9.30034 15.4113Z" fill="#EB5C62"/>
  </g>
  <!-- Home text -->
  <g transform="translate(40.89, 4.2)">
    <path d="M28.611 18.7232C22.1218 18.7232 20.3472 16.9336 20.3472 10.4143V8.2713C20.3472 1.85728 22.2045 0 28.611 0H29.5434C35.9273 0 37.7696 1.60822 37.7696 8.2713V10.4143C37.7696 16.9336 36.0025 18.7232 29.5434 18.7232H28.611ZM28.7614 3.98528C26.28 3.98528 25.6032 4.90263 25.6032 8.2713V10.4143C25.6032 13.3544 26.0619 14.6628 28.7614 14.6628H29.3554C32.0774 14.6628 32.5135 13.4146 32.5135 10.4143V8.2713C32.5135 5.24852 32.0774 3.98528 29.3554 3.98528H28.7614Z" fill="#3C3C3B"/>
    <path d="M61.9232 18.3238V8.25539C61.9232 5.38299 61.5172 4.4205 59.1335 4.4205H58.8328C56.4566 4.4205 56.0055 5.6612 56.0055 7.94709V18.3163H50.6742V8.24786C50.6742 5.60104 50.3058 4.41298 48.1477 4.41298H47.847C45.2302 4.41298 44.764 5.42058 44.764 8.24786V18.3163H39.4328V0.690906H44.6888V3.42794H45.1851L45.2979 3.23996C46.0273 1.3526 47.6515 0.390113 50.1253 0.390113H50.4261C53.4489 0.390113 54.9302 1.30748 55.5393 3.54826L55.5994 3.76632H56.028L56.1408 3.57081C56.9529 1.42779 58.6373 0.382609 61.2991 0.382609H61.5999C66.0965 0.382609 67.262 1.8564 67.262 7.56359V18.3163H61.9307L61.9232 18.3238Z" fill="#3C3C3B"/>
    <path d="M77.1945 18.6321C70.8256 18.6321 69.0811 16.8575 69.0811 10.3683V8.23278C69.0811 1.84884 70.8857 0.00659671 77.1193 0.00659671H77.9163C84.3604 0.00659671 86.0297 1.60822 86.0297 7.8117V10.451H74.307V11.609C74.307 14.3535 74.8935 14.94 77.6155 14.94H78.1494C80.3977 14.94 81.1948 14.6242 81.1948 12.8497V12.8045H86.1124V12.9249C86.1124 17.1357 84.0596 18.6321 78.2697 18.6321H77.202H77.1945ZM77.5328 3.38278C74.8409 3.38278 74.2619 4.05954 74.2619 7.18008V7.48835H81.1045V6.71386C81.1045 4.25502 80.6082 3.38278 77.796 3.38278H77.5328Z" fill="#3C3C3B"/>
    <g>
      <path d="M17.6931 7.13496V18.3238H12.4446V11.1503H5.24852V18.3238H0V0.329944H5.24852V7.13496H17.6931Z" fill="#3C3C3B"/>
      <path d="M17.6942 0.323347H12.6261V5.39141H17.6942V0.323347Z" fill="#EB5C62"/>
    </g>
  </g>
  <!-- WINDOW text -->
  <g transform="translate(40.88, 28.55)">
    <path d="M7.56449 6.63961H5.48915L4.51163 1.66179H4.48155L3.49651 6.63961H1.42117L0 0.0752177H1.69186L2.51148 5.25605H2.54907L3.57171 0.0752177H5.44403L6.47418 5.25605H6.50426L7.31635 0.0752177H8.95557L7.55697 6.63961H7.56449Z" fill="#3C3C3B"/>
    <path d="M11.3099 6.63961H9.61801V0.0752177H11.3099V6.63961Z" fill="#3C3C3B"/>
    <path d="M18.6184 6.63961H16.1971L13.9187 1.52645H13.8736L13.9187 6.63961H12.3622V0.0752177H14.8436L17.0844 5.15829H17.1295L17.0543 0.0752177H18.6184V6.63961Z" fill="#3C3C3B"/>
    <path d="M25.6422 3.9176C25.6422 6.17341 25.1985 6.63961 22.5667 6.63961H19.6793V0.0752177H22.5667C25.0632 0.0752177 25.6422 0.481247 25.6422 2.73706V3.9176ZM22.4991 5.33125C23.7247 5.33125 23.9503 5.0831 23.9503 3.77473V2.85737C23.9503 1.60164 23.7247 1.36102 22.4991 1.36102H21.3712V5.33125H22.4991Z" fill="#3C3C3B"/>
    <path d="M29.3937 6.7148C27.0401 6.7148 26.4686 6.03054 26.4686 3.84993V2.86489C26.4686 0.684276 27.0401 0 29.3937 0H29.6193C31.9728 0 32.5443 0.684276 32.5443 2.86489V3.84993C32.5443 6.03054 31.9728 6.7148 29.6193 6.7148H29.3937ZM29.5892 5.38388C30.5817 5.38388 30.8224 5.09813 30.8224 3.81984V2.87242C30.8224 1.60165 30.5817 1.30838 29.5892 1.30838H29.4238C28.4312 1.30838 28.1906 1.59413 28.1906 2.87242V3.81984C28.1906 5.09062 28.4312 5.38388 29.4238 5.38388H29.5892Z" fill="#3C3C3B"/>
    <path d="M40.6272 6.63961H38.5519L37.5743 1.66179H37.5443L36.5592 6.63961H34.4839L33.0627 0.0752177H34.7546L35.5742 5.25605H35.6118L36.6344 0.0752177H38.5067L39.5369 5.25605H39.567L40.3791 0.0752177H42.0183L40.6197 6.63961H40.6272Z" fill="#3C3C3B"/>
  </g>
  <!-- Korean text (정암홈 윈도우) -->
  <g transform="translate(86.61, 28.6)">
    <path d="M1.99264 2.68455C1.97008 2.74471 1.90992 2.83496 1.81968 2.94023C1.72945 3.0455 1.62419 3.15075 1.5114 3.2485C1.36101 3.38385 1.18806 3.52674 1.00008 3.66961C0.812093 3.82 0.61659 3.96285 0.413567 4.0982L0 3.58688C0.2331 3.42146 0.443643 3.26356 0.646666 3.10566C0.849689 2.94775 1.01512 2.81238 1.14295 2.68455C1.23318 2.60184 1.30086 2.51162 1.36853 2.43642C1.4362 2.36123 1.48132 2.27101 1.5114 2.18829C1.549 2.10558 1.57154 2.00781 1.5941 1.91006C1.60914 1.81231 1.61667 1.692 1.61667 1.56417V1.44386H0.187984V0.834794H1.61667V0.0527737H2.33101V0.834794H3.66945V1.44386H2.33101V1.53409C2.33101 1.64688 2.331 1.74465 2.34604 1.83488C2.35356 1.92511 2.37612 2.00782 2.39868 2.08301C2.42124 2.1582 2.45883 2.2334 2.51146 2.30108C2.55658 2.36875 2.62426 2.44395 2.70698 2.51162C2.8724 2.66201 3.05286 2.81239 3.24084 2.95526C3.42883 3.09813 3.63185 3.23347 3.8424 3.37634L3.44387 3.89518C3.25589 3.76735 3.08294 3.63952 2.91752 3.51169C2.75209 3.39138 2.58667 3.25603 2.41372 3.11316C2.30093 3.02293 2.2107 2.94021 2.14302 2.87254C2.07535 2.80486 2.03023 2.74471 2.00015 2.69208L1.99264 2.68455ZM1.33845 5.39153C1.33845 5.2261 1.38357 5.07571 1.4738 4.9178C1.56403 4.76742 1.69185 4.6396 1.8648 4.5268C2.03774 4.41401 2.24829 4.3313 2.50395 4.26362C2.75961 4.19595 3.04535 4.16587 3.3762 4.16587C3.70705 4.16587 3.99279 4.19595 4.24845 4.26362C4.50411 4.3313 4.71464 4.42153 4.88759 4.5268C5.06053 4.6396 5.18836 4.76742 5.2786 4.9178C5.36883 5.06819 5.41394 5.2261 5.41394 5.39153V5.67727C5.41394 5.84269 5.36883 6.0006 5.2786 6.15099C5.18836 6.30138 5.06053 6.4292 4.88759 6.54199C4.71464 6.65478 4.50411 6.7375 4.24845 6.80517C3.99279 6.87285 3.70705 6.90293 3.3762 6.90293C3.04535 6.90293 2.75961 6.87285 2.50395 6.80517C2.24829 6.7375 2.03774 6.64726 1.8648 6.54199C1.69185 6.4292 1.56403 6.30138 1.4738 6.15099C1.38357 6.0006 1.33845 5.84269 1.33845 5.67727V5.39153ZM4.70713 5.44417C4.70713 5.36146 4.67704 5.27875 4.61689 5.19604C4.55673 5.11333 4.47402 5.03812 4.36123 4.97044C4.24844 4.90277 4.11309 4.85013 3.94767 4.80502C3.78224 4.7599 3.59426 4.73735 3.3762 4.73735C3.15814 4.73735 2.97015 4.7599 2.80472 4.80502C2.63929 4.85013 2.50395 4.90277 2.39116 4.97044C2.27837 5.03812 2.19565 5.11333 2.1355 5.19604C2.07534 5.27875 2.04527 5.36146 2.04527 5.44417V5.61712C2.04527 5.69983 2.07534 5.78254 2.1355 5.86525C2.19565 5.94796 2.27837 6.02317 2.39116 6.09085C2.50395 6.15852 2.63929 6.21113 2.80472 6.25625C2.97015 6.30137 3.15814 6.32394 3.3762 6.32394C3.59426 6.32394 3.78224 6.30137 3.94767 6.25625C4.11309 6.21113 4.24844 6.15852 4.36123 6.09085C4.47402 6.02317 4.55673 5.94796 4.61689 5.86525C4.67704 5.78254 4.70713 5.69983 4.70713 5.61712V5.44417ZM4.66953 4.06813V2.54921H3.46643V1.94014H4.66953V0.105415H5.37635V4.07564H4.66953V4.06813Z" fill="#3C3C3B"/>
    <path d="M9.84269 2.06863C9.84269 2.2115 9.81262 2.3694 9.74494 2.53483C9.67727 2.70025 9.57951 2.85816 9.44416 3.00103C9.30881 3.14389 9.13587 3.2642 8.93285 3.35444C8.72983 3.44467 8.48169 3.49731 8.19596 3.49731C7.91022 3.49731 7.66959 3.45219 7.45905 3.35444C7.24851 3.25668 7.08309 3.14389 6.94774 3.00103C6.81239 2.85816 6.71463 2.70025 6.64696 2.53483C6.57928 2.3694 6.54921 2.2115 6.54921 2.06863V1.76033C6.54921 1.61747 6.57928 1.45956 6.64696 1.29414C6.71463 1.12871 6.81239 0.970809 6.94774 0.827941C7.08309 0.685073 7.25603 0.564762 7.45905 0.47453C7.66207 0.384297 7.91022 0.33166 8.19596 0.33166C8.48169 0.33166 8.72231 0.376778 8.93285 0.47453C9.14339 0.572281 9.30881 0.685073 9.44416 0.827941C9.57951 0.970809 9.67727 1.12871 9.74494 1.29414C9.81262 1.45956 9.84269 1.61747 9.84269 1.76033V2.06863ZM9.16595 1.79792C9.16595 1.70017 9.14339 1.60243 9.10579 1.50468C9.0682 1.40693 9.00804 1.31668 8.92532 1.23397C8.84261 1.15126 8.74486 1.08359 8.62455 1.03096C8.50424 0.97832 8.36889 0.955757 8.21099 0.955757C8.05308 0.955757 7.91773 0.97832 7.79742 1.03096C7.67711 1.08359 7.57936 1.15126 7.49665 1.23397C7.41394 1.31668 7.35378 1.40693 7.31618 1.50468C7.27858 1.60243 7.25604 1.70017 7.25604 1.79792V2.03855C7.25604 2.1363 7.27858 2.23406 7.31618 2.33181C7.35378 2.42957 7.41394 2.51979 7.49665 2.6025C7.57936 2.68521 7.67711 2.75288 7.79742 2.80551C7.91773 2.85815 8.05308 2.88824 8.21099 2.88824C8.36889 2.88824 8.50424 2.86567 8.62455 2.80551C8.74486 2.75288 8.84261 2.68521 8.92532 2.6025C9.00804 2.51979 9.0682 2.42957 9.10579 2.33181C9.14339 2.23406 9.16595 2.1363 9.16595 2.03855V1.79792ZM11.6022 4.13646V6.70807H7.56432V4.13646H11.6022ZM8.27114 6.10653H10.9029V4.74552H8.27114V6.10653ZM12.5421 2.22653H11.6022V3.81311H10.8954V0.0910346H11.6022V1.60243H12.5421V2.219V2.22653Z" fill="#3C3C3B"/>
    <path d="M18.9867 3.8048V4.39131H12.9111V3.8048H15.588V3.42883C15.3398 3.41379 15.1143 3.38372 14.9112 3.3386C14.7082 3.29348 14.5353 3.23331 14.3924 3.15812C14.2495 3.08293 14.1367 2.9927 14.0615 2.88743C13.9863 2.78216 13.9488 2.66184 13.9488 2.5265V2.32348C13.9488 2.17309 13.9939 2.04525 14.0916 1.93246C14.1894 1.81967 14.3247 1.72194 14.4977 1.64674C14.6781 1.57155 14.8887 1.51139 15.1293 1.47379C15.3699 1.43619 15.6406 1.41364 15.9414 1.41364C16.2422 1.41364 16.5053 1.43619 16.7535 1.47379C16.9941 1.51139 17.2046 1.57155 17.3851 1.64674C17.5656 1.72194 17.7009 1.81967 17.7912 1.93246C17.8889 2.04525 17.934 2.17309 17.934 2.32348V2.5265C17.934 2.66184 17.8964 2.78216 17.8137 2.88743C17.731 2.9927 17.6257 3.08293 17.4829 3.15812C17.34 3.23331 17.167 3.29348 16.964 3.3386C16.761 3.38372 16.5429 3.41379 16.2948 3.42883V3.8048H18.9717H18.9867ZM13.5352 0.61657H15.588V0H16.3023V0.61657H18.3626V1.2031H13.5352V0.61657ZM18.1145 6.71479H13.7758V4.73719H18.1145V6.71479ZM17.4152 5.3237H14.4826V6.12828H17.4152V5.3237ZM15.9489 1.99263C15.5353 1.99263 15.212 2.03021 14.9939 2.09789C14.7684 2.16556 14.6631 2.26333 14.6631 2.39868V2.47385C14.6631 2.60168 14.7759 2.69945 14.9939 2.77465C15.2195 2.84232 15.5353 2.87991 15.9489 2.87991C16.3625 2.87991 16.6858 2.84232 16.9039 2.77465C17.1294 2.70697 17.2347 2.6092 17.2347 2.47385V2.39868C17.2347 2.27085 17.1219 2.17308 16.9039 2.09789C16.6783 2.03021 16.3625 1.99263 15.9489 1.99263Z" fill="#3C3C3B"/>
    <path d="M23.0764 4.67824V3.76088C22.8358 3.7684 22.5726 3.77591 22.2869 3.77591H21.347V3.16684C21.8658 3.16684 22.3245 3.16684 22.708 3.16684C23.0914 3.16684 23.4449 3.1518 23.7682 3.14428C24.0915 3.13676 24.3923 3.12173 24.678 3.09917C24.9638 3.07661 25.2645 3.05405 25.5804 3.02397L25.6405 3.61048C25.3397 3.64056 25.0465 3.67065 24.7532 3.69321C24.46 3.71576 24.1442 3.7308 23.7907 3.73832V4.67824H23.0839H23.0764ZM23.4223 2.7984C23.1817 2.7984 22.9561 2.76832 22.7531 2.70064C22.5501 2.63297 22.3771 2.55026 22.2342 2.44499C22.0914 2.33972 21.9786 2.21189 21.9034 2.06902C21.8207 1.92615 21.7831 1.78329 21.7831 1.62538V1.38476C21.7831 1.23437 21.8207 1.08398 21.9034 0.941116C21.9861 0.798248 22.0914 0.677938 22.2342 0.565148C22.3771 0.452357 22.5501 0.369647 22.7531 0.309492C22.9561 0.241818 23.1742 0.211737 23.4223 0.211737C23.6704 0.211737 23.8885 0.241818 24.0915 0.309492C24.2945 0.377166 24.4675 0.459876 24.6104 0.565148C24.7532 0.670419 24.866 0.798248 24.9412 0.941116C25.0164 1.08398 25.0615 1.22685 25.0615 1.38476V1.62538C25.0615 1.77577 25.0239 1.92615 24.9412 2.06902C24.8585 2.21189 24.7532 2.3322 24.6104 2.44499C24.4675 2.55778 24.2945 2.64049 24.0915 2.70064C23.8885 2.76832 23.6704 2.7984 23.4223 2.7984ZM23.1366 6.03924H26.8962V6.64831H22.4222V4.88126H23.1366V6.03924ZM23.4223 2.20436C23.5727 2.20436 23.708 2.18182 23.8208 2.14422C23.9411 2.10662 24.0389 2.05398 24.1216 1.99382C24.2043 1.93367 24.2645 1.866 24.3096 1.79081C24.3547 1.71561 24.3773 1.64793 24.3773 1.57274V1.42987C24.3773 1.35468 24.3547 1.287 24.3096 1.2118C24.2645 1.13661 24.2043 1.07647 24.1216 1.01631C24.0389 0.956159 23.9411 0.911034 23.8208 0.865918C23.7005 0.828321 23.5652 0.80575 23.4223 0.80575C23.2794 0.80575 23.1366 0.828321 23.0238 0.865918C22.9035 0.903514 22.8057 0.956159 22.723 1.01631C22.6403 1.07647 22.5801 1.14413 22.535 1.2118C22.4899 1.287 22.4673 1.35468 22.4673 1.42987V1.57274C22.4673 1.64793 22.4899 1.71561 22.535 1.79081C22.5801 1.866 22.6403 1.92615 22.723 1.99382C22.8057 2.0615 22.9035 2.10662 23.0238 2.14422C23.1441 2.18182 23.2794 2.20436 23.4223 2.20436ZM26.0616 5.22714V0.0989506H26.7684V5.22714H26.0616Z" fill="#3C3C3B"/>
    <path d="M33.068 3.7674H31.1656V5.23368H33.8425V5.83522H27.7669V5.23368H30.4438V3.7674H28.5865V0.654394H32.9853V1.25593H29.2933V3.16586H33.0605V3.7674H33.068Z" fill="#3C3C3B"/>
    <path d="M36.9798 6.71482V4.54172H34.3029V3.94018H40.3785V4.54172H37.7016V6.71482H36.9798ZM37.3407 0.225607C37.6791 0.225607 37.9799 0.263215 38.2581 0.33089C38.5363 0.398564 38.7694 0.496304 38.9649 0.624133C39.1604 0.751962 39.3108 0.894835 39.4161 1.0753C39.5213 1.25576 39.574 1.44374 39.574 1.65428V1.90994C39.574 2.12048 39.5213 2.316 39.4161 2.48894C39.3108 2.66189 39.1604 2.81228 38.9649 2.94011C38.7694 3.06794 38.5363 3.15816 38.2581 3.23335C37.9799 3.30103 37.6791 3.33864 37.3407 3.33864C37.0023 3.33864 36.694 3.30103 36.4234 3.23335C36.1527 3.16568 35.9196 3.06794 35.7241 2.94011C35.5286 2.81228 35.3782 2.66941 35.2729 2.48894C35.1676 2.30848 35.115 2.12048 35.115 1.90994V1.65428C35.115 1.44374 35.1676 1.24824 35.2729 1.0753C35.3782 0.902354 35.5286 0.751962 35.7241 0.624133C35.9196 0.496304 36.1527 0.406083 36.4234 0.33089C36.694 0.263215 37.0023 0.225607 37.3407 0.225607ZM37.3407 2.70701C37.5738 2.70701 37.7768 2.68444 37.9723 2.64684C38.1678 2.60925 38.3182 2.54909 38.4536 2.48142C38.5814 2.40622 38.6867 2.32351 38.7619 2.22576C38.8371 2.12801 38.8747 2.01522 38.8747 1.89491V1.66181C38.8747 1.5415 38.8371 1.42871 38.7619 1.33096C38.6867 1.2332 38.5814 1.14297 38.4536 1.0753C38.3182 1.00011 38.1603 0.947469 37.9723 0.909872C37.7844 0.872276 37.5738 0.849728 37.3407 0.849728C37.1076 0.849728 36.9046 0.872276 36.7091 0.909872C36.5211 0.947469 36.3632 1.00763 36.2279 1.0753C36.0925 1.14297 35.9947 1.2332 35.9196 1.33096C35.8444 1.42871 35.8068 1.5415 35.8068 1.66181V1.89491C35.8068 2.01522 35.8444 2.12801 35.9196 2.22576C35.9947 2.32351 36.1 2.41374 36.2279 2.48142C36.3557 2.54909 36.5211 2.60925 36.7091 2.64684C36.8971 2.68444 37.1076 2.70701 37.3407 2.70701Z" fill="#3C3C3B"/>
  </g>
</svg>
