<svg width="81" height="28" viewBox="0 0 81 28" fill="none" xmlns="http://www.w3.org/2000/svg">
<path d="M53.4775 0C55.2529 0 56.813 0.44341 58.1572 1.33105C59.5267 2.21868 60.6171 3.42373 61.4287 4.94531C62.2402 6.44159 62.6464 8.15365 62.6465 10.0811C62.6465 12.0084 62.2275 13.7332 61.3906 15.2549C60.5791 16.7511 59.4886 17.9307 58.1191 18.793C56.7496 19.6553 55.2149 20.0869 53.5156 20.0869C52.1461 20.0869 50.9666 19.8461 49.9775 19.3643C48.9884 18.8824 48.1643 18.21 47.5049 17.3477V28H41.7988V15.4023C38.845 16.4541 35.59 17.5844 32.6426 18.6025C29.096 19.8276 26.014 20.8854 24.3984 21.4678C22.7773 22.0522 21.8838 22.365 21.3926 22.5186C21.202 22.5781 20.8896 22.675 20.5879 22.7061C20.5171 22.7134 19.9026 22.7966 19.2754 22.4277C18.339 21.8768 18.2589 20.9371 18.25 20.709C18.2204 19.9474 18.6079 19.4252 18.6895 19.3105C18.8103 19.1407 18.9753 18.9462 19.165 18.7295C19.5684 18.2687 20.3213 17.4445 21.7236 15.9326C24.4182 13.0277 29.4342 7.66494 32.2637 4.63574L21.7812 6.31055L21.1328 2.25L32.6455 0.411133L32.6572 0.409181L32.668 0.407228C35.0695 0.050729 36.1772 -0.005951 36.9121 0.068359C37.0904 0.086399 37.3188 0.119128 37.5566 0.190429C37.7654 0.253029 38.1971 0.406556 38.5762 0.800781C39.0481 1.29177 39.2196 1.92047 39.1709 2.48535C39.1329 2.92531 38.967 3.24988 38.9229 3.33691C38.7331 3.71063 38.4479 4.01554 38.1357 4.35839C37.7378 4.79565 37.0056 5.58301 35.6367 7.04883C33.5485 9.28512 29.9645 13.1162 27.1309 16.1562C28.3956 15.7189 29.8124 15.2306 31.2998 14.7168C34.7196 13.5355 38.5303 12.2109 41.7988 11.0352V0.456055H46.8584L46.8984 3.27051C47.3428 2.8223 48.3236 1.85013 48.9053 1.45801C49.4869 1.06599 50.0791 0.672569 50.8145 0.418945C51.5753 0.139966 52.4631 9.77e-06 53.4775 0ZM9.96777 0C11.8952 2.76e-05 13.5818 0.418941 15.0273 1.25586C16.4729 2.0928 17.6015 3.23411 18.4131 4.67969C19.2499 6.09991 19.6689 7.74831 19.6689 9.625C19.6689 9.87857 19.6562 10.1703 19.6309 10.5C19.6309 10.8043 19.6054 11.1215 19.5547 11.4512H5.65332C5.70704 12.1239 5.86285 12.7329 6.125 13.2773C6.48001 13.962 6.97453 14.4946 7.6084 14.875C8.26782 15.2554 9.04201 15.4453 9.92969 15.4453C10.7663 15.4453 11.4509 15.2807 11.9834 14.9512C12.5414 14.5961 12.973 14.1517 13.2773 13.6191H19.0977C18.7426 14.8365 18.1338 15.9406 17.2715 16.9297C16.4092 17.8933 15.3568 18.6668 14.1143 19.25C12.8716 19.8079 11.5021 20.0869 10.0059 20.0869C8.02765 20.0869 6.29029 19.6807 4.79395 18.8691C3.29758 18.0322 2.11817 16.8782 1.25586 15.4072C0.418957 13.9109 0 12.199 0 10.2715C2.76024e-05 8.29329 0.418935 6.5304 1.25586 4.9834C2.0928 3.43643 3.25959 2.21867 4.75586 1.33105C6.25214 0.443526 7.98969 0 9.96777 0ZM80.6055 4.96387L70.8047 15.1953H80.8027V20.0742H64.1143V15.3525L73.8359 5.12109H64.2324V0.242188H80.6055V4.96387ZM52.0703 4.9834C51.1321 4.9834 50.295 5.21159 49.5596 5.66797C48.8496 6.09899 48.2915 6.6954 47.8857 7.45605C47.48 8.21679 47.2764 9.07938 47.2764 10.043C47.2764 11.032 47.48 11.9071 47.8857 12.668C48.2915 13.4288 48.8494 14.0249 49.5596 14.4561C50.2951 14.8872 51.1319 15.1035 52.0703 15.1035C52.9833 15.1035 53.7948 14.8999 54.5049 14.4941C55.2403 14.063 55.811 13.4669 56.2168 12.7061C56.6225 11.9453 56.8252 11.07 56.8252 10.0811C56.8251 9.09209 56.6225 8.21679 56.2168 7.45605C55.811 6.69531 55.2403 6.09909 54.5049 5.66797C53.7948 5.21159 52.9832 4.9834 52.0703 4.9834ZM10.0059 4.60352C9.19427 4.60352 8.45824 4.79339 7.79883 5.17383C7.1395 5.55428 6.60693 6.125 6.20117 6.88574C6.01597 7.25621 5.87727 7.67497 5.78223 8.14161H13.8477C13.7969 7.0766 13.4042 6.22676 12.6689 5.59277C11.9589 4.93344 11.071 4.60362 10.0059 4.60352Z" fill="currentColor"/>
</svg>
